<svg width="59" height="66" viewBox="0 0 59 66" fill="none" xmlns="http://www.w3.org/2000/svg">
<path d="M38.3604 41.1497C37.7928 41.6693 36.9273 41.4955 36.5637 40.8375L33.419 33.6274C32.4612 33.1928 30.1661 32.4834 29.391 33.4429L25.1502 42.4781C23.3925 45.0784 21.665 39.4522 20.7515 38.466L15.7605 39.3086C14.7991 39.1933 14.3593 38.3401 14.8382 37.4763L19.0275 28.3932C17.7257 27.8345 16.5231 27.329 15.803 26.0165C14.8364 24.2516 15.4962 22.8504 15.5636 21.0767C15.6718 18.1501 12.8197 16.834 14.0028 13.5403C14.7512 11.4526 16.9683 10.8744 17.6547 8.9606C18.3074 7.13369 18.0236 5.42562 19.753 4.02085C21.7678 2.38373 23.671 3.38941 25.6965 2.6622C27.9384 1.85517 28.1885 -0.308745 31.5655 0.0371261C33.6052 0.244649 34.5577 2.10526 36.1096 2.6622C38.1014 3.37877 39.9726 2.40679 41.9787 3.96409C43.7665 5.3529 43.4863 7.09999 44.1514 8.96237C44.8804 11.0021 47.3191 11.5466 47.9257 13.95C48.7097 17.0593 46.0882 18.3204 46.2407 21.2115C46.2727 21.8359 46.4873 22.5524 46.5103 23.1981C46.6008 25.6227 45.7264 27.0239 43.5927 28.1307L47.1595 36.625C47.0992 37.5366 46.6363 37.7779 45.7725 37.7495C44.9868 37.7229 41.3685 36.7207 41.0617 36.8715L38.3657 41.1514L38.3604 41.1497ZM30.7993 2.18862C29.5205 2.25957 27.8 4.27626 26.3545 4.78177C24.9977 5.25712 23.7526 5.04959 22.4134 5.22164C19.8807 5.54623 20.3436 8.93576 19.3078 10.7449C18.5469 12.0752 16.2518 13.3505 15.9946 14.5992C15.6558 16.2416 17.5554 18.088 17.7877 19.7819C17.997 21.3126 17.1173 23.6982 17.7948 24.9522C18.4014 26.075 21.1169 26.5841 22.2662 27.517C23.726 28.7036 24.5028 31.7686 26.5195 31.7366C27.9614 31.7136 29.4939 30.5802 31.2959 30.7026C32.8461 30.809 34.7882 32.1269 36.2373 31.5238C37.3547 31.0591 38.3586 28.4695 39.5328 27.517C40.7069 26.5645 43.2912 26.0998 43.9545 25.0356C44.7136 23.8153 43.802 21.3144 44.0113 19.7819C44.2206 18.2494 45.9747 16.2203 45.8275 14.8493C45.6661 13.3345 43.316 12.1763 42.4912 10.7449C41.4678 8.96592 41.8846 5.63846 39.4973 5.24115C38.0429 4.99993 36.6258 5.30501 35.1448 4.68244C33.8642 4.14324 32.1012 2.1159 30.8011 2.18862H30.7993ZM44.1088 35.0818L41.388 28.9803C39.3661 30.4773 38.9599 33.5777 36.0085 33.8881L37.8017 37.8683C38.2877 37.2138 39.327 34.908 39.9531 34.5781C40.8453 34.1063 43.0287 35.1829 44.107 35.0801L44.1088 35.0818ZM26.7181 33.8881C25.5315 34.0336 24.1818 33.5121 23.334 32.6909C23.0324 32.3982 21.1683 29.3883 21.0105 29.5071L17.6902 36.6746C17.8906 36.8254 21.0123 35.8286 21.908 36.2418C22.4489 36.4919 23.506 39.0248 23.9955 39.5959L26.7181 33.8881Z" fill="white"/>
<path d="M22.3354 58.3173C23.8004 58.092 25.3542 58.672 25.6238 60.2737C25.7426 60.9831 25.7426 63.3439 25.5954 64.0339C25.3081 65.3784 24.0151 65.7987 22.8054 65.891C18.2241 66.2386 13.2153 65.616 8.58779 65.891C7.60519 65.8484 6.71658 64.8729 6.57114 63.9239C6.4257 62.975 6.40619 60.2364 6.87444 59.5163C7.61405 58.3829 8.75806 58.3758 9.98898 58.4485L9.9606 57.214C7.51118 54.3264 4.16961 51.8184 1.75212 48.9592C-0.665377 46.1 0.0990691 43.7002 0.170015 40.332C0.262246 35.9634 0.198394 31.5451 0.425422 27.1765C0.510557 25.5252 0.577956 24.3492 1.96141 23.269C3.62333 21.9707 6.0018 22.2119 7.25932 23.9395C8.56119 25.7274 8.36786 27.8008 8.39091 29.8335C8.42461 32.9995 8.37673 36.1673 8.39801 39.3316C9.54379 38.2479 10.7836 37.8612 12.3178 38.3969C13.6995 38.8793 14.8719 40.6246 15.9627 41.6569C18.1336 43.7109 22.3372 46.1337 22.3372 49.4878V58.3173H22.3354ZM20.0793 58.3173C19.9321 56.1267 20.2904 53.922 20.2177 51.7386C20.1822 50.6833 20.0651 49.032 19.6146 48.0919C19.0027 46.8095 15.5955 44.4115 14.3664 43.2497C13.499 42.4303 12.7186 41.5345 11.9134 40.6583C10.741 39.8939 9.45334 40.8907 9.95883 42.2156C10.4111 43.404 13.4316 45.5466 14.3078 46.7599C15.0297 47.762 14.1074 48.9007 13.0131 48.4573C12.3675 48.1965 9.61119 45.3373 8.99041 44.6421C7.41895 42.8843 6.29977 41.3164 6.13305 38.8704C5.90957 35.6086 6.45231 32.1907 6.27672 28.9005C6.21286 27.6873 5.99648 24.6667 4.3452 24.6596C3.27214 24.656 2.77374 25.5695 2.68861 26.5184C2.27535 31.0981 2.7968 36.1123 2.28244 40.7169C2.45449 43.0635 1.70423 45.3196 3.28278 47.2955C5.66126 50.2718 9.41254 52.9554 11.9045 55.9334C12.4419 56.6216 12.1972 57.5085 12.2451 58.3137H20.0775L20.0793 58.3173ZM23.3978 60.5734L8.79354 60.7064V63.5603L23.3978 63.6259V60.5716V60.5734Z" fill="white"/>
<path d="M36.675 49.4878C37.0581 45.7027 40.5576 44.0141 43.0496 41.6569C44.19 40.5767 45.3216 38.8225 46.7937 38.3649C48.2659 37.9073 49.4791 38.2656 50.6142 39.3316C50.6355 36.1673 50.5876 32.9995 50.6213 29.8334C50.6426 27.8008 50.4493 25.7273 51.7529 23.9394C53.0565 22.1515 55.3889 21.9706 57.0508 23.269C58.4343 24.3492 58.5017 25.5251 58.5868 27.1764C58.812 31.5433 58.75 35.9633 58.8422 40.3319C58.9131 43.6842 59.635 46.1443 57.2583 48.9592C54.8816 51.7741 51.4993 54.3264 49.0498 57.214L49.0215 58.4485C50.2506 58.3758 51.3964 58.3829 52.136 59.5163C52.5918 60.2169 52.5883 63.053 52.4428 63.9257C52.2885 64.8462 51.3946 65.8679 50.4226 65.8891C45.7934 65.6124 40.7881 66.2332 36.205 65.8891C34.9865 65.7969 33.7006 65.3854 33.415 64.0321C33.2678 63.3403 33.2696 60.9831 33.3884 60.2718C33.6563 58.6702 35.2118 58.0902 36.6768 58.3155V49.486L36.675 49.4878ZM46.7654 58.3172C46.8132 57.512 46.5685 56.6234 47.1059 55.9369C49.5979 52.9607 53.351 50.2771 55.7277 47.299C57.3062 45.3231 56.5542 43.067 56.728 40.7204C56.2136 36.1159 56.7351 31.1016 56.3218 26.5219C56.2367 25.573 55.7383 24.6578 54.6652 24.6631C53.014 24.6702 52.7976 27.6908 52.7337 28.904C52.5581 32.1924 53.1009 35.6104 52.8774 38.874C52.7107 41.3199 51.5915 42.8878 50.02 44.6456C49.3992 45.3409 46.643 48.1983 45.9974 48.4608C44.9048 48.9024 43.9807 47.7637 44.7026 46.7634C45.577 45.5502 48.5976 43.4075 49.0516 42.2192C49.5536 40.9031 48.2836 39.8938 47.097 40.6618C46.5738 41.0006 45.3943 42.5384 44.7771 43.1202C43.5444 44.282 39.9971 46.8379 39.3976 48.0954C38.9435 49.0461 38.8371 50.6744 38.7945 51.7421C38.7094 53.9344 39.0624 56.1267 38.9329 58.3208H46.7654V58.3172ZM50.2169 60.7064L35.6126 60.5734V63.6277L50.2169 63.5621V60.7082V60.7064Z" fill="white"/>
<path d="M29.4759 6.44195C40.0647 5.24825 45.8202 18.3009 37.6667 25.1208C29.7615 31.7349 17.9543 24.1151 20.6786 14.1061C21.741 10.2022 25.4231 6.89779 29.4759 6.44018V6.44195ZM29.609 8.69809C26.6328 9.03687 23.7594 11.6424 22.9045 14.475C20.7123 21.7436 28.5359 28.0083 35.1215 24.1701C42.8333 19.6773 39.0377 7.62501 29.6072 8.69809H29.609Z" fill="white"/>
<path d="M21.5018 61.1286C22.7096 60.9388 22.9296 62.7905 21.8654 62.9643C20.4784 63.1914 20.3862 61.3042 21.5018 61.1286Z" fill="white"/>
<path d="M37.3048 61.1304C38.4931 61.0293 38.7024 63.0637 37.2693 62.9768C36.2228 62.9129 36.1253 61.2315 37.3048 61.1304Z" fill="white"/>
<path d="M35.8451 12.5346C36.7993 12.3803 37.4219 13.4835 36.9466 14.3118L29.2737 21.2434C28.8339 21.4634 28.511 21.4084 28.1084 21.1423C27.0478 20.4382 25.8718 18.6414 24.7935 17.8202C24.4405 16.9954 24.9886 15.9933 25.9251 16.1512C26.8615 16.309 28.543 18.6698 28.8871 18.6095L35.8433 12.5346H35.8451Z" fill="white"/>
</svg>
