<svg width="74" height="64" viewBox="0 0 74 64" fill="none" xmlns="http://www.w3.org/2000/svg">
<path d="M46.8404 19.347C47.5506 19.553 48.4647 21.1138 49.0083 21.276C49.3218 21.368 49.7646 21.3198 50.0999 21.3067C51.9785 21.2299 52.658 20.2698 53.6948 22.2164C54.0543 22.8915 55.3344 25.6447 55.4572 26.2519C55.7334 27.6285 53.1468 28.6654 52.5878 29.757C52.9758 30.419 52.5418 32.359 52.6799 32.7316C52.8114 33.0845 54.9333 34.4283 55.3278 34.8908C55.7224 35.3533 55.6939 35.7128 55.569 36.2608C55.4572 36.7431 53.9513 40.5419 53.7211 40.8422C53.2476 41.4626 51.5488 41.2653 50.7378 41.2477C50.3915 41.2412 50.0539 41.0658 49.7711 41.0724C49.0456 41.0877 48.1205 42.9685 47.2854 43.2841C47.0552 44.3583 47.9562 46.7958 47.2942 47.5959C46.7549 48.2491 43.0943 49.275 42.1868 49.8932C40.9922 50.04 39.7011 47.1926 38.8462 47.0326C38.4407 46.9558 36.2092 46.9734 35.8804 47.1115C35.1001 47.4403 33.9909 50.0159 32.8927 50.0817L27.6823 48.0716C26.9699 47.5126 27.5355 44.7769 27.4434 43.819L25.1593 41.5853C24.3154 41.6182 21.5272 42.221 20.9682 41.6818L18.7105 36.6225C18.6666 36.2915 18.8223 35.9605 18.9998 35.6953C19.3856 35.1144 21.479 33.7575 21.571 33.2862C21.6982 32.6396 21.4286 32.0762 21.4088 31.5172C21.3957 31.127 21.7026 30.7084 21.5469 30.259C21.3518 29.6978 18.5899 28.3651 18.5198 27.3282C18.4957 26.96 20.2405 22.4882 20.532 22.1199C21.2839 21.1707 23.4781 22.03 24.7012 21.7889C25.1046 21.71 26.5052 19.8314 26.9962 19.4434C26.9721 18.5556 26.3891 16.0808 26.8603 15.432C27.3316 14.7831 31.0887 13.6761 31.9502 13.115C33.2719 12.9769 34.3219 15.5635 35.4749 16.0085C36.3276 15.6292 37.6954 16.0764 38.4429 15.763C38.798 15.6139 39.6156 14.2965 39.9707 13.9151C40.6897 13.1435 40.819 12.7862 41.9544 13.0645C42.7107 13.2509 45.3038 14.2702 46.0009 14.6428C47.7917 15.6029 46.3845 17.7292 46.8404 19.3492V19.347ZM44.7186 16.4885L41.7396 15.4166C40.933 15.9493 39.9597 18.0054 39.0917 18.183C38.5218 18.2992 37.0378 18.0712 36.2706 18.0865C35.7379 18.0975 35.2469 18.3386 34.6639 18.2641C33.4868 18.1128 32.5113 15.5043 31.4964 15.7082C30.8081 15.8463 29.7341 16.6398 28.991 16.8327C28.7696 17.1834 29.4776 19.7393 29.2145 20.5153C29.0195 21.0918 26.3562 22.9923 25.9989 23.8889C25.3391 24.2681 23.1339 24.0095 22.3076 23.9064C21.9327 23.9897 21.3014 26.4207 20.9507 26.8569C20.9661 27.0432 23.557 28.7333 23.7477 29.3361C23.9822 30.0705 23.6403 30.7632 23.6469 31.5172C23.6534 32.3086 23.9274 33.0582 23.8222 33.9285C23.7082 34.8864 22.1103 35.8334 21.3957 36.4866C21.2488 36.6203 21.2422 36.754 21.2707 36.9404C21.3716 37.6002 22.3119 38.8189 22.3952 39.6103C22.7131 39.8163 25.2996 39.1346 26.08 39.3823C26.4745 39.5072 27.6933 41.0373 28.158 41.4823C28.4824 41.7936 29.2978 42.2363 29.5148 42.5367C30.1176 43.3696 29.3285 45.4674 29.6266 46.524C30.3522 46.535 31.8274 47.5696 32.4149 47.5126C33.0023 47.4556 34.2167 45.0707 34.9028 44.8449C35.7445 44.5643 36.5424 44.9523 37.2438 44.9348C38.2456 44.9106 39.3175 44.3561 40.225 45.0093C40.7269 45.371 42.0399 47.3657 42.5178 47.3197C43.125 47.2627 44.4511 46.3201 45.1723 46.1952C45.4551 45.7371 44.7799 43.4025 44.9465 42.6879C45.0693 42.1618 46.6322 40.8597 47.1341 40.36C47.7106 39.7834 47.9912 38.9044 48.9798 38.8211C49.5563 38.7729 51.8316 39.2727 52.1297 38.8913C52.5374 38.3652 52.7325 36.8132 53.1906 36.1753C53.16 35.7742 50.6633 34.3362 50.4112 33.5317C50.2841 33.1284 50.5208 31.366 50.5098 30.7062C50.5011 30.1691 50.2753 29.7088 50.3367 29.1038C50.4397 28.0998 52.2021 27.0696 52.9298 26.3769L53.0087 26.1248C52.6624 25.7719 51.9697 23.5557 51.7615 23.4264C51.3998 23.2006 49.2385 23.6828 48.6225 23.6653C47.463 23.6302 45.9198 21.0546 44.7843 20.5175C44.1903 19.4697 44.5849 17.6722 44.7164 16.4907L44.7186 16.4885Z" fill="white"/>
<path d="M36.5182 3.78781C49.2691 3.44585 60.7771 12.1877 63.9577 24.4895C67.3794 37.7251 60.7179 51.6205 48.1994 57.0196C46.071 57.938 41.7505 59.2752 39.4884 59.2467C38.6752 59.2357 38.0745 58.4575 38.4077 57.6772C38.8286 56.6929 40.9921 56.8376 42.0158 56.6228C56.5049 53.5912 65.7047 39.1061 61.7065 24.6495C58.5939 13.3934 47.7632 5.445 36.036 6.04124C36.5599 6.86983 38.9579 7.94832 39.1859 8.76815C39.4139 9.58797 38.4976 10.513 37.6515 10.1316L32.0312 5.94479C31.6717 5.61817 31.5797 5.02851 31.7791 4.59448C31.926 4.27445 36.584 0.740861 37.2021 0.374789C37.8203 0.00871658 38.4713 -0.263097 38.9996 0.423014C40.0474 1.78647 37.1693 2.94606 36.5182 3.78781Z" fill="white"/>
<path d="M16.9089 47.026C17.2355 45.8533 16.5253 42.4117 18.395 42.5564C19.6313 42.6507 19.3551 44.4021 19.3266 45.3447C19.2872 46.6577 19.136 48.5056 18.9781 49.8187C18.8203 51.1317 18.5156 51.6118 17.0996 51.2567C15.837 50.9388 12.8055 49.7727 11.6086 49.194C10.7976 48.8038 10.0172 48.2952 10.6595 47.2847C11.4026 46.1163 13.5025 47.8612 14.5021 47.7494C5.89845 35.6559 8.31842 18.6609 20.0522 9.58361C21.3959 8.54239 25.6243 5.85274 27.1587 5.5897C28.3204 5.39022 29.1578 6.63311 28.2459 7.49021C27.7461 7.9593 25.2166 8.8975 24.3573 9.38852C11.1702 16.9116 7.32765 35.1035 16.9089 47.0282V47.026Z" fill="white"/>
<path d="M27.6781 59.2423H0.915936C-0.289664 59.2423 -0.265548 56.9911 0.755924 56.9911H27.8381C27.1498 56.0156 23.796 54.8297 25.1025 53.372C25.7075 52.6968 26.2248 53.0169 26.8583 53.3895C27.6846 53.874 31.4461 56.6294 32.0029 57.2453C32.3448 57.6224 32.4742 58.1134 32.255 58.5957C32.1081 58.9135 27.4457 62.4537 26.8319 62.8153C26.2752 63.1442 25.6351 63.4752 25.0959 62.8658C23.8267 61.4278 27.0336 60.1849 27.6759 59.2401L27.6781 59.2423Z" fill="white"/>
<path d="M69.4685 59.2423H57.0113C56.939 59.2423 56.345 58.8017 56.277 58.6921C55.9351 58.1309 56.2595 56.9933 56.8491 56.9933H69.4663C69.0191 56.2304 66.8775 55.2856 66.643 54.593C66.3295 53.6657 66.8885 52.7889 67.9012 53.0015L73.6508 57.2256C74.1681 57.6728 74.0673 58.5036 73.6311 58.988C73.1269 59.547 69.2339 62.4251 68.4908 62.846C67.9012 63.1814 67.1756 63.4072 66.7219 62.7079C65.7223 61.1669 68.7582 60.209 69.4663 59.2401L69.4685 59.2423Z" fill="white"/>
<path d="M36.4854 21.3593C49.541 20.4562 51.0316 40.406 38.204 41.5612C24.4623 42.7975 22.9959 22.2953 36.4854 21.3593ZM36.3254 23.6083C24.7539 24.7241 28.66 43.0803 39.9795 38.8343C48.4055 35.6712 45.4332 22.7315 36.3254 23.6083Z" fill="white"/>
<path d="M41.6188 27.7688C42.6403 27.6351 43.2759 28.7859 42.6271 29.5882L36.0467 35.0617C35.5448 35.224 35.1919 35.1582 34.76 34.8842C34.4093 34.6628 31.54 31.7233 31.4479 31.4449C31.152 30.5242 31.6803 29.6693 32.7039 29.8534C33.4141 29.9806 34.9398 32.0718 35.6346 32.554C36.0182 32.554 40.6543 27.8959 41.6188 27.7688Z" fill="white"/>
</svg>
