<svg width="65" height="56" viewBox="0 0 65 56" fill="none" xmlns="http://www.w3.org/2000/svg">
<path d="M2.96883 12.9005C3.26035 10.7341 5.68507 8.62007 7.87062 8.5258L44.4507 8.51707C44.5799 8.49263 46.5228 7.49235 46.5996 7.39808C47.5719 6.21451 46.0916 5.2055 46.4076 4.20522C46.4809 3.97304 48.1847 2.23084 48.4483 2.06151C49.3159 1.50464 50.248 2.56776 51.0615 2.45778C52.4964 2.26401 52.2974 0.474678 53.0463 0.12554C53.4181 -0.0490288 56.0017 -0.0350635 56.3805 0.127286C57.07 0.422307 57.1364 1.84155 57.5483 2.12959C57.6112 2.17323 58.491 2.49619 58.5678 2.49793C59.1508 2.5119 60.0272 1.69841 60.7307 1.91138C61.003 1.99343 62.9284 3.91718 63.021 4.20347C63.2933 5.04664 62.5112 5.74492 62.4554 6.38907C62.4501 6.44494 62.8167 7.39983 62.8516 7.44347C63.1379 7.79086 64.6461 8.0178 64.8504 8.64625C64.9551 8.96571 64.9743 11.5092 64.8801 11.8286C64.6898 12.4798 63.206 12.5741 62.7451 13.3509C62.0661 14.4961 63.2374 15.1228 63.0768 16.1562C63.0035 16.6223 62.1638 17.2665 62.1638 17.3433V44.1955H64.1888C64.4524 44.1955 64.8731 44.7297 64.9132 45.0386C65.0477 46.0581 65.011 48.8198 64.9045 49.8794C64.6217 52.7057 61.902 55.0589 59.0967 55.1794L5.42321 55.1375C2.8222 54.8267 0.359085 52.5242 0.0954917 49.8812C-0.010993 48.8233 -0.0476495 46.0599 0.0867656 45.0404C0.126916 44.7314 0.547616 44.1972 0.811209 44.1972H2.96709V12.9005H2.96883ZM55.3453 2.01089C55.2633 1.96026 54.1513 1.96026 54.078 2.00739C54.0047 2.05453 53.7062 3.22414 53.3448 3.56106C52.9346 3.94511 51.168 4.54737 50.6059 4.46532C50.2201 4.40946 49.4677 3.87004 49.157 4.06905C47.8512 4.90698 49.0732 5.50052 48.9702 6.62998C48.9405 6.95642 48.4308 8.21681 48.2528 8.53104C47.8303 9.26946 46.5019 9.54528 46.4739 9.65002C46.4443 9.76175 46.4652 10.7934 46.5036 10.8563C46.556 10.9401 47.7954 11.373 48.0119 11.5703C48.368 11.8967 49.0139 13.81 48.958 14.325C48.9126 14.7387 48.3749 15.4876 48.5617 15.7791C49.4311 17.1355 49.9652 15.9153 50.9899 15.9642C51.264 15.9764 52.9887 16.6747 53.2401 16.8492C53.7742 17.2193 53.8441 18.4867 54.3887 18.588C55.3802 18.7713 55.2371 18.6141 55.5164 18.0171C56.0436 16.8859 56.878 16.3186 58.1139 16.0375C59.0793 15.8175 59.8543 16.6956 60.406 16.3762C61.5756 15.6988 60.4164 14.8888 60.4583 13.9514C60.481 13.4644 61.2439 11.785 61.6506 11.4743C61.9282 11.263 63.0681 10.8755 63.089 10.7987C63.1327 10.6381 63.1047 9.84729 63.0175 9.70065C62.8411 9.40737 61.792 9.2747 61.4551 8.9116C61.1496 8.57992 60.4287 6.71726 60.474 6.25466C60.5194 5.79205 61.1252 5.05537 60.8721 4.66782C60.1249 3.5244 59.8474 4.30123 58.9344 4.44263C58.278 4.54388 56.4311 3.95907 56.0418 3.47726C55.862 3.25382 55.4186 2.05627 55.3506 2.01263L55.3453 2.01089ZM4.9292 13.0314V44.1972H6.88957V13.8152C6.88957 13.5272 7.55989 12.5741 7.86887 12.5741H45.4353C45.3864 12.3454 45.046 12.3716 44.8435 12.1865C44.3634 11.7466 44.5485 11.0693 44.5223 10.4827L7.99456 10.4775C6.78308 10.5159 5.12471 11.8496 4.9292 13.0314ZM46.7428 14.5327H8.84819V44.1955H15.6423C15.6911 43.6822 15.4904 42.9141 15.843 42.5004C16.3388 41.9174 18.4161 41.4984 18.9799 40.9345C19.1388 40.7757 19.8109 39.208 19.8685 38.9392C20.1146 37.808 18.4754 36.0204 18.9695 34.9189C19.1615 34.4929 22.0139 31.6492 22.4032 31.548C23.3231 31.3105 25.2154 32.6669 26.0289 32.6408C26.5404 32.6233 27.6576 31.7941 28.2825 31.7487C28.7137 31.04 29.2391 29.0883 29.7471 28.5733C30.18 28.1334 31.0214 28.2696 31.5818 28.2521V22.1753C31.5818 22.1055 30.6618 21.6167 30.475 21.4526C28.4117 19.6581 29.7663 16.1772 32.5646 16.2191C35.2424 16.2592 36.5534 19.6825 34.5197 21.4526C34.3329 21.615 33.413 22.1055 33.413 22.1753V28.2521C33.9821 28.2678 34.6943 28.1456 35.1796 28.5105C35.7801 28.9608 36.227 31.0871 36.7489 31.644C36.8676 31.7714 38.5784 32.5046 38.8367 32.5762C39.6764 32.8049 41.7101 31.2599 42.6963 31.5776C42.9372 31.6562 45.6255 34.2957 45.8926 34.6535C46.2086 35.0742 46.2679 35.1598 46.1615 35.7079C46.0166 36.4481 45.0966 38.0122 45.0984 38.6424C45.0984 39.0143 45.9206 40.8664 46.2522 41.0899C47.5999 42.0011 49.9181 41.8196 49.4834 44.1955H56.1483V20.4139C55.361 20.5588 53.7236 20.7212 53.0219 20.3389C52.2066 19.8955 52.5418 18.2929 51.2151 18.0904C50.2602 17.9455 49.3508 18.8725 48.5722 18.5164C48.3976 18.4361 46.46 16.425 46.4024 16.2365C46.2278 15.6587 46.7585 15.1228 46.741 14.5345L46.7428 14.5327ZM60.2017 44.1955V18.6491C59.5907 18.3331 58.7825 17.9228 58.1104 18.0608V44.1955H60.2017ZM32.2032 18.2179C31.0005 18.4797 31.2658 20.592 32.7968 20.2568C33.9995 19.995 33.7342 17.8827 32.2032 18.2179ZM47.5266 44.1955C47.5527 43.972 47.5475 43.9057 47.3939 43.7399C46.9243 43.2371 44.8801 42.9002 44.4071 42.153C44.1801 41.7934 43.0978 39.126 43.0786 38.7681C43.0298 37.89 43.9393 36.5581 44.0859 35.6329C44.0719 35.5002 42.4135 33.8453 42.2372 33.7301C42.0906 33.6323 42.0836 33.6271 41.9056 33.6602C40.9943 33.8261 39.7113 34.8106 38.739 34.6291C38.4195 34.5697 35.5462 33.3408 35.3664 33.1627C34.9038 32.7088 34.2299 30.4552 33.9384 30.2788C33.722 30.1479 31.1384 30.1758 31.0494 30.2963C30.4925 31.2494 30.2394 32.8607 29.2409 33.4246C28.8237 33.6602 26.4042 34.657 26.0271 34.6658C25.3062 34.6832 23.3406 33.5555 22.9146 33.6393C22.7924 33.6637 21.2091 35.2296 21.1253 35.371C20.9997 35.584 20.9927 35.6154 21.0258 35.865C21.1236 36.6297 21.9667 37.8866 21.9859 38.6424C21.9964 39.0422 20.778 41.9837 20.4882 42.3101C20.0361 42.8181 17.7091 43.5566 17.6253 43.6927C17.5555 43.8079 17.6288 44.0453 17.6061 44.1972H25.1857C26.0393 37.1953 35.5601 35.3448 39.0113 41.5438C39.5001 42.4219 39.6572 43.286 40.0168 44.1972H47.53L47.5266 44.1955ZM37.8574 44.1955C36.8362 38.2392 28.2476 38.2654 27.1426 44.1955H37.8574ZM25.0513 46.1559H1.92319V49.0956C1.92319 51.0124 3.73692 53.0042 5.64666 53.212L59.685 53.1526C61.4324 52.8349 63.0768 50.8745 63.0768 49.0956V46.1559H39.9487V48.5737C39.9487 48.6278 39.3168 49.2737 39.1055 49.1689C34.916 48.846 30.1434 49.5739 26.0236 49.1689C25.6605 49.134 25.0513 48.8111 25.0513 48.4427V46.1559ZM37.9883 46.1559H27.0117V47.2015H37.9883V46.1559Z" fill="white"/>
<path d="M27.2352 26.461C27.6298 26.9289 27.6175 29.221 27.5041 29.8564C27.3993 30.4482 26.8076 30.8567 26.2245 30.6821C25.0619 30.333 25.823 28.6065 25.5542 27.8174C25.4285 27.4508 22.6756 26.2027 22.22 25.7959C20.4639 26.9917 17.896 26.5553 17.2501 24.361C16.1923 20.7683 21.293 18.9843 22.8083 22.0689C23.1976 22.8632 22.9793 23.3851 23.2255 24.134L27.237 26.4593L27.2352 26.461ZM20.0536 22.3971C18.6833 22.5158 18.8404 24.6106 20.1549 24.5792C21.5706 24.546 21.4484 22.2749 20.0536 22.3971Z" fill="white"/>
<path d="M37.7629 30.4377C37.3003 29.9769 37.3509 27.0528 37.721 26.5169C38.311 25.9112 41.5492 24.5548 41.8425 24.0695C41.9926 23.8198 41.8774 22.9941 41.9978 22.5263C42.5687 20.3058 45.7807 19.7978 47.2034 21.5853C49.0887 23.9525 46.8944 27.1157 43.8919 26.3336C43.4991 26.2306 43.019 25.7209 42.7013 25.8326C42.4395 25.9251 39.5871 27.5696 39.4893 27.7284C39.2921 28.0479 39.4981 29.3694 39.4178 29.8791C39.2886 30.7013 38.3285 30.9999 37.7629 30.4377ZM44.7472 22.4006C43.4485 22.5245 43.5759 24.5513 44.8433 24.5792C46.2817 24.6124 46.2433 22.2574 44.7472 22.4006Z" fill="white"/>
<path d="M54.0289 5.55117C60.4983 4.67658 61.2367 14.2273 55.5494 14.9116C48.8374 15.7181 48.174 6.34197 54.0289 5.55117ZM54.1564 7.50809C51.1015 8.0283 51.2446 12.9913 54.6696 13.0454C58.6584 13.1083 58.297 6.80283 54.1564 7.50809Z" fill="white"/>
</svg>
