<svg width="67" height="77" viewBox="0 0 67 77" fill="none" xmlns="http://www.w3.org/2000/svg">
<path d="M50.27 0C50.4154 0.173719 50.6625 0.257584 50.784 0.455265C51.1068 0.978419 51.1726 3.3406 51.3579 4.21519C52.2306 8.32655 54.7172 11.751 59.0348 12.5138C60.1446 12.7095 62.4918 12.39 62.5037 13.9714C62.5197 15.8045 60.047 15.3352 58.74 15.5888C54.2031 16.4654 51.9556 20.3791 51.2064 24.6302C50.9793 25.9241 51.4156 28.1805 49.5945 28.1146C48.0065 28.0567 48.3393 25.8023 48.136 24.6302C47.4028 20.411 45.0935 16.4694 40.6065 15.5848C39.3672 15.3412 36.9264 15.7825 36.8546 14.1112C36.7829 12.4399 39.1081 12.7195 40.3056 12.5098C44.9799 11.6971 47.3749 7.88327 48.136 3.4684C48.3432 2.26235 48.0464 0.750787 49.0745 0H50.268H50.27ZM49.8217 7.9212C49.5706 7.65164 49.5686 8.02104 49.5108 8.13286C48.5784 9.95592 47.9069 11.1859 46.3129 12.5497C45.9802 12.8353 44.3583 13.8636 44.3045 13.9754C44.1929 14.211 44.4161 14.1831 44.4918 14.237C45.0138 14.6124 45.5757 14.88 46.0957 15.3173C47.5403 16.5313 48.8812 18.2425 49.5268 20.0276C49.8755 20.1035 49.7659 19.9797 49.8595 19.836C50.0767 19.4985 50.2201 19.0053 50.4493 18.6379C51.6009 16.7889 53.1351 15.1815 55.0459 14.1232C55.0917 13.9135 54.9244 13.8736 54.7949 13.7757C52.6828 12.1703 51.6069 11.5034 50.2461 9.06735C50.0727 8.75985 49.8635 7.96513 49.8217 7.9212Z" fill="white"/>
<path d="M40.1284 43.346H57.0564C58.8935 43.346 60.9417 46.0217 61.141 47.7708C61.3322 49.4381 60.8082 50.3467 60.1208 51.7704C63.6873 54.2504 63.0159 59.3761 59.0708 61.0574C60.9537 63.8129 59.5071 67.4091 56.5483 68.6771C58.5528 71.7661 56.646 75.9353 53.0296 76.5284C44.6772 76.115 35.8087 77.0735 27.518 76.5344C26.205 76.4485 24.7286 76.0791 23.4952 75.6338C21.0883 74.7612 19.1198 72.8244 16.4299 72.8084C16.0294 74.5596 14.2422 76.2788 12.447 76.5144C10.8211 76.7281 5.74629 76.7281 4.12043 76.5144C2.09409 76.2488 0.0836838 74.0284 0 71.9737V45.3587C0.197255 43.0844 2.12398 41.0317 4.40735 40.8061C6.30219 40.6184 10.1038 40.6344 12.0186 40.8001C14.0927 40.9778 15.9079 42.5373 16.414 44.5441C19.2831 44.2345 21.4709 42.9946 23.7682 41.3752C26.7768 39.2546 31.0487 35.4847 31.4591 31.595C31.8218 28.1605 29.3989 24.5304 33.2802 22.0604C37.1496 19.5963 41.1545 22.28 42.6907 26.0559C44.9721 31.6609 42.5134 38.1983 40.1284 43.346ZM16.7288 70.0848C20.7058 70.3084 23.4295 73.5312 27.3785 73.8347L52.7347 73.8407C55.5182 73.1998 55.2433 69.3021 52.4199 68.9167C51.1567 68.745 48.955 69.1743 47.8771 68.8368C46.6597 68.4554 46.8251 66.4527 48.421 66.227C50.4055 65.9455 52.934 66.4127 54.9763 66.219C58.0188 65.9315 57.8972 61.6744 55.1058 61.295C52.926 60.9975 50.2302 61.5146 47.9927 61.2491C46.6358 60.7259 46.7812 58.829 48.2696 58.5993C50.9256 58.192 54.5718 58.8449 57.3632 58.5953C60.595 58.3058 60.4058 54.0766 57.7956 53.6653C54.9524 53.22 51.0989 54.0088 48.1441 53.6214C46.6537 53.3219 46.7733 51.1853 48.1182 50.9737C50.4175 50.6142 53.5975 51.1873 56.0203 50.9717C59.0449 50.7001 59.4175 46.9502 56.6021 46.0436C50.2302 45.9538 43.8284 46.1754 37.4744 45.9318C36.7571 45.808 36.2968 45.0532 36.4303 44.3544C39.0644 39.596 42.4476 32.5015 40.2021 27.0563C39.2975 24.8638 36.9125 22.7173 34.5634 24.3886C32.9415 25.5407 34.0593 28.0667 34.1709 29.6641C34.5116 34.5542 31.5846 38.3521 28.1217 41.3991C24.9258 44.2126 21.0823 46.6746 16.7806 47.2217L16.7328 70.0848H16.7288ZM3.34337 44.1447C3.02656 44.4802 2.68586 45.181 2.68785 45.6543L2.72969 72.0836C3.03454 72.8783 3.55058 73.639 4.4452 73.8008C6.68275 74.2081 9.93646 73.5951 12.2836 73.8048C13.5209 73.3076 13.9353 72.3531 14.035 71.0772C13.6046 63.0182 14.5889 54.3961 14.035 46.403C13.9353 44.9734 13.4691 43.6794 11.8652 43.4957C10.2612 43.312 6.29621 43.324 4.70622 43.4957C4.22205 43.5477 3.67412 43.7933 3.34138 44.1447H3.34337Z" fill="white"/>
<path d="M14.8818 15.2773C16.8444 14.834 16.5216 16.721 16.7308 17.8432C17.2528 20.6446 18.4104 23.3303 21.4529 24.0212C22.4293 24.2428 24.3042 23.9912 24.2982 25.4828C24.2942 27.0803 22.8098 26.7288 21.8734 26.9185C19.3828 27.4237 17.9223 28.9133 17.1552 31.3074C16.7427 32.5953 16.7945 33.8054 16.4459 35.0813C16.0334 35.9619 14.545 35.9699 14.1406 35.0853C13.7242 31.549 12.8953 27.7052 8.8426 26.9425C7.94798 26.7747 6.29224 27.0084 6.29224 25.4848C6.29224 23.9613 8.16117 24.2448 9.13748 24.0232C12.9451 23.1586 13.752 19.2369 14.1406 15.8843C14.2721 15.5968 14.5729 15.3472 14.8798 15.2793L14.8818 15.2773ZM18.2052 25.4109C16.8344 24.8179 16.0753 23.4681 15.2962 22.274C14.557 23.544 13.7182 24.5983 12.5406 25.4848C13.6146 26.4772 14.7304 27.4556 15.2962 28.8494C15.9298 27.4417 17.0795 26.4213 18.2052 25.4129V25.4109Z" fill="white"/>
<path d="M28.568 9.48868C29.4387 9.46672 31.7719 11.739 31.8994 12.5198C32.0748 13.5781 30.9969 14.3149 29.9926 13.9694C29.638 13.8476 27.8587 12.0845 27.6256 11.7091C27.0418 10.7726 27.3985 9.51864 28.568 9.48868Z" fill="white"/>
<path d="M22.7939 3.76195C23.5431 3.6661 25.7467 5.69882 25.9958 6.31382C26.5896 7.77347 25.2526 8.90763 23.8818 7.98512C23.5351 7.7515 21.8315 6.00632 21.716 5.67286C21.4251 4.82223 21.8634 3.88175 22.7919 3.76195H22.7939Z" fill="white"/>
<path d="M30.2436 3.76591C31.3494 3.5203 32.25 4.57859 31.8117 5.64287C31.722 5.86252 29.5343 8.07694 29.2972 8.20274C28.1376 8.81176 26.8763 7.61968 27.486 6.38767C27.6733 6.01028 29.881 3.84777 30.2436 3.7679V3.76591Z" fill="white"/>
<path d="M24.8402 9.48867C25.8583 9.46072 26.5179 10.5829 26.0237 11.4974C25.9181 11.6951 23.824 13.7797 23.6308 13.8816C22.5329 14.4507 21.457 13.7418 21.6423 12.4918C21.7399 11.8349 24.1129 9.50864 24.8402 9.48867Z" fill="white"/>
<path d="M62.0097 31.8685C62.466 31.7667 64.9326 31.7627 65.371 31.8745C66.6561 32.2 66.5206 34.2946 65.102 34.5202C64.4963 34.6161 62.4899 34.5941 61.9439 34.4124C60.6827 33.9911 60.7943 32.1421 62.0097 31.8685Z" fill="white"/>
<path d="M59.4772 34.4064C60.0809 34.2726 60.8082 34.5701 61.0453 35.1632C61.2286 35.6184 61.2426 38.2262 61.0911 38.7194C60.6926 40.0233 58.6743 39.9674 58.473 38.1883C58.3575 37.1659 58.204 34.688 59.4752 34.4064H59.4772Z" fill="white"/>
<path d="M60.8082 27.1062C61.0054 27.3039 61.131 27.5874 61.1648 27.869C61.2764 28.7775 61.376 31.2495 60.5512 31.7487C58.3056 33.1045 58.2319 29.091 58.5388 27.7891C58.7779 26.7788 60.059 26.3574 60.8082 27.1042V27.1062Z" fill="white"/>
<path d="M54.4044 31.8685C54.8766 31.7627 57.2955 31.7687 57.7358 31.9045C58.9751 32.2859 58.9452 34.2267 57.4688 34.4923C56.8372 34.6061 54.775 34.6081 54.2131 34.3885C53.0495 33.9332 53.2109 32.1361 54.4044 31.8685Z" fill="white"/>
</svg>
