<svg width="77" height="77" viewBox="0 0 77 77" fill="none" xmlns="http://www.w3.org/2000/svg">
<path d="M0.00397667 14.245C0.669462 12.0765 2.50254 9.93395 4.86362 9.62445C5.75027 9.50864 10.6498 9.79418 10.8769 9.5965C10.9187 9.55856 11.0662 8.80378 11.2176 8.51824C13.0626 4.99593 16.9639 6.2539 20.1937 6.0063C20.5045 5.89847 20.5304 5.02588 20.6639 4.68443C23.1166 -1.55948 31.7739 -1.56347 34.2287 4.68443C34.3622 5.02588 34.3881 5.89847 34.6989 6.0063C37.9287 6.2539 41.8299 4.99593 43.675 8.51824C43.8244 8.80578 43.9718 9.56056 44.0157 9.5965C44.2428 9.79418 49.1423 9.50864 50.029 9.62445C52.0035 9.88403 54.8886 12.41 54.8886 14.4686V17.0844C57.9112 14.3708 60.5213 11.172 63.6535 8.6061C65.0243 7.99309 66.3991 8.16481 67.5667 9.08732C69.6687 10.7466 71.8146 13.2905 69.7285 15.8903L54.9643 30.6884L54.9045 46.2133L57.2716 47.1259C57.5386 46.8304 56.64 44.1467 57.2716 43.6135L65.7695 35.0913C66.3612 34.5122 67.3874 34.5642 67.8416 35.263C68.5968 36.4252 69.5034 40.0952 70.3183 40.852C71.8286 41.8664 74.3769 42.3196 75.8195 43.2601C76.5189 43.7154 76.5687 44.7437 75.9908 45.3368L67.5547 53.7711C66.5445 54.446 65.1299 53.6873 63.9822 53.855C68.2242 62.3353 64.1117 72.8124 55.1118 75.8315L52.1987 76.5743H4.62252C2.23554 75.7956 0.775071 74.3339 0 71.9418V14.245H0.00397667ZM27.3965 2.49597C25.4518 2.51793 23.5211 3.91767 22.9632 5.79264C22.6942 6.69319 22.9473 7.76945 22.0726 8.33853C19.9825 8.63006 17.6752 8.20874 15.607 8.43637C13.7221 8.64204 13.232 9.73028 13.1204 11.4755C12.9909 13.5202 12.975 16.6271 13.1204 18.6639C13.2141 19.9677 13.5986 21.0979 14.9874 21.4274L39.7558 21.4314C41.0429 21.3136 41.6526 20.1415 41.7602 18.9554C41.9435 16.9187 41.9276 13.2306 41.7682 11.1799C41.6426 9.56056 40.9433 8.62008 39.2836 8.43837C37.2154 8.21273 34.9081 8.63206 32.818 8.34252C31.9792 7.81138 32.2163 6.77306 31.9672 5.90646C31.3914 3.90769 29.4746 2.476 27.3965 2.49996V2.49597ZM64.843 10.8445C64.5919 10.9124 63.6535 11.6432 63.6993 11.9088C63.7531 12.2183 66.5306 14.6184 66.8952 15.1395C67.471 14.5066 68.3736 14.0753 67.9353 13.0529C67.8755 12.9131 65.9149 10.9483 65.7734 10.8864C65.4766 10.7586 65.1498 10.7626 64.843 10.8445ZM10.7414 12.0026H5.89372C3.90523 12.0026 2.37702 13.9095 2.39097 15.8165L2.38099 70.0768C2.28137 72.0856 3.76576 74.1802 5.89372 74.1802H41.6128C40.4372 73.2437 39.2656 72.3172 38.2554 71.193C37.9067 70.8056 37.1456 69.4698 36.7671 69.3959L7.67898 69.4019C6.20057 69.1143 4.89151 67.8803 4.76798 66.3408L4.77395 17.31C4.69027 16.3136 6.52136 14.3967 7.3841 14.3967H10.7394V12.0046L10.7414 12.0026ZM50.1166 21.8687C50.5271 21.4274 52.3442 19.9498 52.4717 19.5205C52.6132 19.0432 52.5534 16.4554 52.4996 15.8165C52.382 14.3927 51.8301 12.9531 50.4135 12.378C50.1684 12.2782 49.1921 12.0046 48.9968 12.0046H44.1492V14.3967H47.5045C48.2636 14.3967 50.1146 16.2517 50.1146 17.0125V21.8707L50.1166 21.8687ZM61.8244 13.65L47.7954 27.847C47.6958 27.9588 47.7356 28.0287 47.7954 28.1425C47.889 28.3262 50.5291 30.974 50.7144 31.0678L64.9645 17.0824C65.0641 16.9706 65.0243 16.9007 64.9645 16.7869C64.5541 15.9882 62.4142 14.5365 61.8244 13.65ZM10.7414 16.7869H8.28071C7.68297 16.7869 7.05932 17.7533 7.15695 18.3504V65.2945C7.02346 65.9315 7.61921 67.0078 8.28071 67.0078H35.6493C35.5377 66.6064 35.0336 64.7115 34.8105 64.6356L24.35 64.5058C23.5032 64.1164 23.8319 62.2255 24.5373 62.2255H34.6052V59.8333H24.5373C23.816 59.8333 23.4115 57.7407 24.5692 57.4732L34.5375 57.4492C34.7128 57.4552 34.8583 57.4392 34.9798 57.2934C35.1093 57.1377 35.8406 54.6637 36.1135 54.0966C36.5539 53.1841 37.2154 52.3275 37.7354 51.4649C36.2689 51.5987 35.1193 51.363 34.1609 50.1889C33.9776 49.9633 33.4117 49.0687 33.4117 48.8471V46.6806H20.2116C19.0022 46.6806 17.5596 47.655 17.0795 48.7732C16.9998 48.9589 16.7069 49.9194 16.7069 50.0432V52.6589H18.8687C19.839 52.6589 21.2338 54.4021 21.4111 55.3426C21.6402 56.5546 21.6044 60.1069 21.4848 61.4088C21.3354 63.0442 20.0961 64.4559 18.4284 64.6236C17.1572 64.7514 13.3874 64.7833 12.1919 64.5797C10.8729 64.354 9.65552 62.8644 9.53995 61.5566C9.42439 60.2487 9.37058 56.5566 9.58179 55.3087C9.73521 54.4101 11.2555 52.6569 12.1561 52.6569H14.3179V49.1446C14.3179 48.4577 15.4397 46.5229 15.9517 45.9997C16.412 45.5285 18.4383 44.2885 19.0161 44.2885H33.4078V42.122C33.4078 41.5529 34.5235 40.3229 35.0256 40.0074C35.1611 39.9235 35.9621 39.5062 36.0179 39.5062H38.1797V36.8904C38.1797 36.7666 37.8868 35.8062 37.8071 35.6205C37.1636 34.1229 35.7489 33.6357 34.2326 33.5219L21.4748 33.5278C21.8016 35.6864 20.8233 38.1025 18.4244 38.3181C17.2568 38.4219 12.6462 38.4619 11.7376 38.1304C10.8291 37.7989 9.74118 36.6109 9.57979 35.6604C9.36859 34.4124 9.41841 30.7503 9.53796 29.4125C9.64754 28.1925 10.6717 26.8606 11.8472 26.4952C12.8056 26.1977 17.2428 26.2436 18.4244 26.3494C20.8233 26.5631 21.8016 28.9812 21.4748 31.1397L35.9502 31.2076C37.833 31.4572 40.5667 34.1009 40.5667 35.9978V39.5102H42.7285C43.5853 39.5102 45.3387 41.4211 45.3387 42.2757V46.0876L47.7257 45.6383V35.1752C45.9822 35.3349 42.593 37.3297 42.9915 34.0929C43.125 33.0067 44.2368 28.468 44.6652 27.5515C45.0936 26.635 47.5922 24.8638 47.7217 24.1869C47.4945 22.7333 48.154 18.3603 47.4328 17.308C47.3212 17.1463 46.7533 16.7929 46.6059 16.7929H44.1452V20.1554C44.1452 21.645 41.7183 23.9273 40.1762 23.9493C32.029 23.52 23.1983 24.5763 15.1308 23.9733C13.3655 23.8415 10.7374 22.0584 10.7374 20.1554V16.7929L10.7414 16.7869ZM13.0885 28.7795C12.3892 28.9053 12.0445 29.3406 11.9488 30.0275C11.8173 30.97 11.8273 33.5338 11.9349 34.4983C12.0006 35.0773 12.174 35.5566 12.7438 35.7802C13.3595 36.0198 16.8722 36.0098 17.6752 35.92C18.8149 35.7902 19.0082 35.259 19.0978 34.2067C19.1735 33.3202 19.2114 29.8717 18.801 29.2627C18.5658 28.9133 18.0717 28.7915 17.6752 28.7456C16.7547 28.6397 13.9593 28.6238 13.0865 28.7815L13.0885 28.7795ZM45.9404 32.9288C46.2811 32.8769 48.3254 32.4695 48.3234 32.2579L46.6119 30.5427C46.4007 30.5387 45.9922 32.5894 45.9424 32.9308L45.9404 32.9288ZM52.5036 45.6343V33.2283C51.7743 34.033 51.1049 34.2766 50.1166 34.648V45.4845C50.9176 45.5065 51.7285 45.3887 52.5036 45.6343ZM68.3577 42.7489C67.6723 42.12 66.959 39.0649 66.2995 38.1624L59.804 44.6559C59.3697 45.4106 60.1467 48.2201 60.1109 49.2225L63.5419 45.8639C64.5282 45.5245 65.4646 46.1195 65.3271 47.1918C65.2096 48.1103 62.45 50.0691 61.9001 51.0156C63.3705 51.1194 64.9147 51.5308 66.3712 51.387L72.9344 44.8136C71.8684 44.0528 69.2344 43.5556 68.3557 42.7509L68.3577 42.7489ZM37.1058 41.9363C36.3128 42.0581 35.9282 42.3496 35.8127 43.1802C35.7031 43.955 35.7031 47.655 35.9382 48.258C36.3467 49.3064 39.1003 49.2484 40.0188 49.0388C40.6365 48.897 42.0391 47.4474 42.8202 47.2137C43.0354 46.9202 43.0115 44.0269 42.9557 43.4678C42.9158 43.0804 42.8202 42.5153 42.5253 42.2557C41.9515 41.7506 37.9864 41.8005 37.1078 41.9363H37.1058ZM49.489 47.9206C37.8629 48.3719 32.6706 63.1839 41.5371 70.8975C52.2187 80.1905 68.021 68.0481 61.8802 55.2927C61.1011 53.6753 59.9236 52.2176 58.6364 54.3502C64.7354 62.6228 57.6741 73.8567 47.4866 71.5105C40.5846 69.9211 37.2532 61.8601 40.6942 55.696C43.916 49.9273 51.5691 48.4977 56.7795 52.4892C58.9672 51.1534 57.3612 49.9613 55.7354 49.1925C53.8864 48.3179 51.5333 47.8407 49.487 47.9206H49.489ZM50.0668 52.7148C40.9572 52.7767 38.7077 65.5561 47.094 68.7649C54.8786 71.7441 61.6471 62.7706 56.7536 56.0994C56.5244 56.4368 55.2632 57.4172 55.2114 57.6868C55.1895 57.8046 55.9685 59.3901 56.0442 59.9452C57.0464 67.3292 47.3092 69.6874 44.6194 63.4715C42.6209 58.8509 46.4764 54.3242 51.348 55.083C51.8441 55.1609 53.2946 55.9496 53.45 55.9197C53.719 55.8678 54.6993 54.6038 55.034 54.3742C53.6413 53.2879 51.8242 52.7009 50.0648 52.7109L50.0668 52.7148ZM13.0885 55.085C12.3892 55.2108 12.0445 55.6461 11.9488 56.333C11.8173 57.2755 11.8273 59.8393 11.9349 60.8038C12.0525 61.8481 12.5047 62.1376 13.495 62.2295C14.3836 62.3133 18.0996 62.3573 18.6595 61.8641C19.2572 61.3389 19.1835 57.545 19.0899 56.6205C18.9882 55.6142 18.7173 55.1689 17.6752 55.0491C16.7547 54.9432 13.9593 54.9273 13.0865 55.085H13.0885ZM51.4575 57.7427C47.9249 56.349 44.9302 60.7698 47.5742 63.5014C50.2242 66.241 54.7949 63.2977 53.3962 59.6836C52.0892 60.1029 50.8419 63.2518 49.3156 62.0538C47.6818 60.7698 50.4932 59.1485 51.2344 58.19C51.35 58.0402 51.5233 57.9983 51.4556 57.7427H51.4575Z" fill="white"/>
<path d="M24.5692 52.6889L31.3954 52.6609C32.553 52.9605 32.4972 54.8354 31.3954 55.0451C30.6841 55.1809 25.402 55.1809 24.6907 55.0451C23.6307 54.8434 23.5391 53.0982 24.5692 52.6869V52.6889Z" fill="white"/>
<path d="M26.9542 6.05624C29.2176 5.38133 29.2176 9.05939 26.9542 8.38448C25.9938 8.09894 25.9938 6.34378 26.9542 6.05624Z" fill="white"/>
</svg>
