<svg width="66" height="75" viewBox="0 0 66 75" fill="none" xmlns="http://www.w3.org/2000/svg">
<path d="M43.2167 15.584C45.8906 17.9622 48.3593 20.5999 50.8678 23.1618L50.9296 45.0724L52.0653 46.3244L64.849 68.4866C66.0903 70.7389 65.0283 73.5065 62.6134 74.3291C53.4361 74.5907 44.1532 74.5129 34.9659 74.3691C34.1669 74.1095 33.5433 73.6882 32.9973 73.0532L7.15496 72.9434C6.46158 72.7257 6.14877 72.1087 6.14877 71.4119L6.16471 25.9852C6.13283 25.8714 5.74828 25.8455 5.55102 25.6797C5.14257 25.3343 2.73566 22.9162 2.64002 22.6107C2.32322 21.6023 3.42705 20.7996 3.29754 20.0269C3.27761 19.9091 2.4348 17.9083 2.35112 17.8224C1.89484 17.3512 0.392517 17.3931 0.107593 16.4826C-0.0358645 16.0253 -0.0358645 12.4411 0.107593 11.9839C0.398494 11.0514 2.07815 11.0813 2.39495 10.7638C2.4866 10.672 3.30352 8.46355 3.3075 8.33376C3.32543 7.59295 2.33916 6.81621 2.64002 5.85775C2.71972 5.60217 5.25016 3.00436 5.56696 2.80668C6.84015 2.00598 7.57139 3.36578 8.44608 3.28391C8.62541 3.26794 9.86074 2.64295 10.1915 2.50317C10.3628 2.43129 10.6458 2.46923 10.7494 2.39734C10.9606 2.24759 11.1957 0.454483 11.8592 0.144983C12.2417 -0.0327295 16.1569 -0.046707 16.6053 0.101054C17.3863 0.356641 17.5178 2.21764 17.8984 2.42929C18.5539 2.3654 19.6836 3.25396 20.124 3.2919C20.7376 3.34382 21.5406 2.36739 22.6026 2.609C22.9991 2.69886 25.683 5.35856 25.8523 5.78188C26.3006 6.90606 25.2008 7.54902 25.2466 8.32177C25.2546 8.45156 26.0814 10.674 26.1731 10.7658C26.3106 10.9016 27.7093 11.1692 28.1197 11.5406C28.2054 11.6184 28.5262 12.1815 28.5262 12.2215V15.584H43.2167ZM15.2324 2.60301C15.1507 2.5511 13.4153 2.5511 13.3356 2.60301C13.2699 2.64494 12.9491 3.80507 12.7797 4.06465C12.3374 4.74555 11.3511 4.74356 10.6318 5.05106C9.80495 5.40648 8.98604 6.12932 8.08744 5.9556C7.45184 5.83379 7.02147 5.17885 6.37192 5.56223C6.26234 5.62613 5.45339 6.47875 5.42948 6.5746C5.33385 6.94999 5.88775 7.52107 5.97144 7.92242C6.19459 8.99669 5.55102 9.44796 5.1884 10.3585C4.89749 11.0893 4.75204 12.2774 4.12043 12.7247C3.85344 12.9144 2.61412 13.2678 2.57029 13.4455C2.52048 13.6572 2.54638 14.997 2.64401 15.1448C2.82134 15.4063 4.03874 15.5162 4.43524 16.0393C4.70223 16.3907 5.02103 17.6827 5.23422 18.2278C5.52911 18.9885 6.12685 19.5397 5.99933 20.4322C5.9276 20.9394 5.23422 21.6183 5.54505 22.0895C5.62873 22.2173 6.59707 23.1598 6.67478 23.1658C6.97166 23.1898 7.98582 22.437 8.57958 22.4929C9.11556 22.5428 9.59773 23.038 10.0799 23.2377C10.8171 23.5412 12.3593 23.8627 12.7518 24.4457C12.9351 24.7173 13.3097 26.0332 13.4053 26.0591C13.7301 25.9812 15.1109 26.145 15.2384 26.0352C15.3181 25.9653 15.5732 24.5016 16.0673 24.1023C16.3323 23.8886 17.9581 23.4553 18.4881 23.2397C19.1118 22.9841 19.5561 22.391 20.3292 22.5228C20.6739 22.5807 21.7817 23.2257 21.969 23.1418C22.0586 23.1019 23.1206 22.0037 23.1366 21.9198C23.1784 21.6942 22.6604 20.8935 22.5986 20.56C22.4093 19.5337 23.0409 18.9985 23.3816 18.1259C23.6486 17.445 23.8539 16.1352 24.4476 15.7578C24.88 15.4822 25.8981 15.4203 25.9958 14.9171C26.0336 14.7254 26.0257 13.4615 25.9679 13.3696C25.8623 13.1999 24.4098 12.9343 24.0471 12.3812C23.7961 11.9978 23.4275 10.5502 23.1864 9.95514C22.8776 9.19636 22.4113 9.08454 22.5707 8.05021C22.6484 7.54303 23.3298 6.86014 23.023 6.39489C22.9393 6.26709 21.971 5.32462 21.8933 5.31663C21.6382 5.29666 20.6938 6.09537 19.9666 6.02149C19.5282 5.97756 18.4503 5.2747 17.9362 5.05505C17.1671 4.72558 16.1868 4.75753 15.7226 3.98478C15.5632 3.71721 15.3042 2.65293 15.2324 2.60701V2.60301ZM41.6506 18.1259H25.9898C26.0416 18.7629 25.2785 19.6435 25.2446 20.1547C25.1948 20.9074 26.2747 21.6403 25.8503 22.6946C25.7288 22.9981 22.9712 25.7995 22.752 25.8654C21.6522 26.1949 20.5762 25.1386 20.1598 25.2205C20.0423 25.2424 18.0378 26.0571 17.9422 26.129C17.3066 26.6042 17.5696 28.0958 16.402 28.4732C15.7644 28.6789 12.6442 28.6889 12.0325 28.4493C10.9945 28.0419 11.2276 26.5843 10.6199 26.129C10.2911 25.8834 9.13947 25.6378 8.68917 25.4501V70.4394H32.1047C32.2342 68.1152 34.1629 66.4179 34.938 64.3113H29.4945C29.0702 64.3113 28.5661 63.6025 28.5262 63.1752C28.4505 62.3485 29.0104 61.8533 29.7894 61.7674C31.8696 61.5378 34.3542 61.9412 36.4802 61.7774L37.1755 60.5754H29.3451C28.4445 60.5754 28.0699 58.3929 29.5264 58.0654L38.6699 57.9616L45.4662 46.2385C46.2253 45.2681 47.2495 44.6112 48.5107 44.5812V25.0008H42.619C42.4496 25.0008 41.6486 24.4118 41.6486 24.1782V18.1239L41.6506 18.1259ZM46.574 22.4609L44.187 20.0688V22.4609H46.574ZM48.3194 47.153C47.9289 47.2409 47.5722 47.6542 47.3431 47.9677C43.7726 55.1581 38.5185 62.1249 35.0635 69.2913C34.4379 70.5892 34.3661 71.6734 36.0518 71.939C44.7111 71.8492 53.4082 72.0868 62.0455 71.8192C62.6632 71.4558 62.9242 70.9486 62.8226 70.2258L50.2143 48.1794C49.7879 47.4086 49.2619 46.9374 48.3194 47.1511V47.153Z" fill="white"/>
<path d="M15.9637 55.3818C17.474 55.1641 21.3752 55.1881 22.9333 55.3438C24.354 55.4856 25.2466 56.2044 25.394 57.6601C25.5654 59.3434 25.5634 62.9955 25.394 64.6807C25.2685 65.9427 24.5333 66.8532 23.2342 66.999C21.6044 67.1827 17.5636 67.1747 15.9258 66.999C14.4215 66.8373 13.8656 65.781 13.758 64.3892C13.6245 62.67 13.5946 59.3613 13.7819 57.6761C13.9314 56.3362 14.6088 55.5735 15.9637 55.3798V55.3818ZM22.8596 57.8837H16.2964V64.4611H22.8596V57.8837Z" fill="white"/>
<path d="M15.6608 42.5245C16.9719 42.3029 22.0128 42.3169 23.3677 42.5026C24.7226 42.6883 25.2944 43.7086 25.4 44.9506C25.5495 46.7018 25.5495 49.9366 25.4 51.6877C25.2586 53.351 24.3819 53.996 22.7819 54.1458C21.4031 54.2755 16.2486 54.3155 15.1448 53.8822C14.2203 53.5188 13.8556 52.6162 13.762 51.6797C13.5986 50.0484 13.5867 46.2845 13.7759 44.6731C13.8995 43.6267 14.5968 42.7042 15.6588 42.5245H15.6608ZM22.8596 45.0305H16.2964V51.6079H22.8596V45.0305Z" fill="white"/>
<path d="M24.7485 30.2823C25.1191 30.6557 25.3403 31.4324 25.3941 31.9516C25.5655 33.6269 25.5296 36.8237 25.4021 38.533C25.3005 39.8928 24.896 41.003 23.3897 41.1487C21.6084 41.3225 17.5438 41.3324 15.7745 41.1407C14.3478 40.987 13.8697 40.0066 13.7561 38.6787C13.6126 36.9954 13.5927 33.6129 13.764 31.9496C13.8637 30.9652 14.308 30.0646 15.2943 29.7452C16.0733 29.4916 22.3297 29.4976 23.3857 29.6273C23.7722 29.6753 24.4776 30.0067 24.7485 30.2783V30.2823ZM22.8597 32.1752H16.2965V38.6028H22.8597V32.1752Z" fill="white"/>
<path d="M28.8669 47.3787C28.0102 46.5181 28.6757 45.3001 29.7915 45.1743C33.4476 44.7649 37.843 45.4917 41.5809 45.1743C43.2068 45.364 43.0673 47.7201 41.4275 47.7182C37.7275 47.4626 33.5811 48.0576 29.9369 47.7261C29.6221 47.6982 29.0881 47.5983 28.8669 47.3767V47.3787Z" fill="white"/>
<path d="M29.379 32.357L41.7164 32.333C43.1291 32.5546 43.0513 34.6772 41.4295 34.8689C37.8251 34.5095 33.3002 35.3441 29.8074 34.8529C28.3708 34.6513 27.9683 32.9181 29.379 32.357Z" fill="white"/>
<path d="M29.379 48.9482L37.6896 48.9262C38.9568 49.1259 39.0942 51.2045 37.3867 51.4441C35.9999 51.6398 31.1941 51.6398 29.8073 51.4441C28.4206 51.2485 27.9683 49.5093 29.379 48.9482Z" fill="white"/>
<path d="M29.379 36.0929L37.6896 36.069C39.0424 36.2786 39.17 38.3373 37.0858 38.5849C35.4998 38.7726 31.7062 38.7626 30.1122 38.5829C28.4106 38.3912 27.8189 36.9535 29.379 36.0929Z" fill="white"/>
<path d="M48.0246 51.492C49.7182 51.2025 51.3281 51.9233 51.4994 53.7663C51.625 55.1122 51.3739 56.5059 51.338 57.8018C51.3002 59.1876 51.4955 62.8537 50.8738 63.9139C50.7463 64.1336 50.3338 64.4191 50.3099 64.5529C50.2741 64.7546 51.1826 65.4794 51.352 66.0186C51.7644 67.3284 51.4935 68.5844 50.3737 69.3891C47.9369 71.1403 44.8944 68.4386 46.1895 65.7929C46.3768 65.4115 47.1339 64.8025 47.1578 64.6607C47.1957 64.4451 46.7394 64.1396 46.596 63.91C45.9504 62.8676 46.1696 59.4651 46.1297 58.0993C46.066 55.9768 45.0458 51.9972 48.0226 51.49L48.0246 51.492ZM48.959 53.996H48.5127L48.6622 61.6197C48.9232 61.6556 48.8016 61.2802 48.8096 61.0985C48.9072 58.7383 48.9013 56.3582 48.959 53.996Z" fill="white"/>
<path d="M12.979 6.95398C23.7204 5.49833 24.5373 21.2728 14.577 21.7121C5.31196 22.1195 4.23802 8.13807 12.979 6.95398ZM13.2779 9.49587C7.6571 10.3145 8.478 19.4318 14.4255 19.1742C21.0345 18.8867 20.5823 8.43159 13.2779 9.49587Z" fill="white"/>
<path d="M20.7277 58.8122C22.0208 58.4229 22.9035 59.5111 22.2938 60.6792C22.1324 60.9887 20.3272 63.2231 20.0841 63.3948C18.5719 64.4611 15.4277 61.0067 17.2608 59.9684C18.3866 59.3294 18.9285 60.4576 19.1875 60.4137C19.4844 60.3637 20.2136 58.966 20.7297 58.8122H20.7277Z" fill="white"/>
<path d="M21.182 45.8052C22.1084 45.7273 22.7162 46.7537 22.3734 47.6023C22.2121 48.0017 20.2953 50.3738 19.9586 50.5675C19.6019 50.7732 19.0659 50.7931 18.6854 50.6314C18.5638 50.5795 16.9141 48.9102 16.8284 48.7544C16.3661 47.9018 17.0356 46.7716 18 46.8256C18.5359 46.8555 19.1337 47.5684 19.2054 47.5684C19.4087 47.5704 20.1439 45.8931 21.182 45.8052Z" fill="white"/>
<path d="M21.0345 32.952C22.0925 32.7962 22.7919 33.8006 22.3774 34.7511C22.222 35.1065 20.3372 37.4248 20.0184 37.6244C19.5701 37.906 19.2174 37.9479 18.7213 37.7422C18.518 37.6584 16.944 36.1129 16.8304 35.9012C15.9796 34.3238 18.2152 33.1756 19.2074 34.7151C19.7653 34.1321 20.1658 33.0818 21.0365 32.954L21.0345 32.952Z" fill="white"/>
</svg>
